# xmcd
#
# Track frame offsets: 
#        150
#        7167
#        32181
#        52044
#        67407
#        85842
#        90617
#        106187
#        123947
#        141415
#        161757
#        177612
#        198560
#        221375
#        238577
#        260045
#        283400
#        295822
#
# Disc length: 4277 seconds
#
# Revision: 7
# Processed by: cddbd v1.5.2PL0 Copyright (c) Steve Scherf et al.
# Submitted via: ExactAudioCopy v1.3
#
DISCID=2210b312
DTITLE=T.I. - I'm Serious
DYEAR=2001
DGENRE=Hip-Hop
TTITLE0=Intro
TTITLE1=Still Ain't Forgave Myself
TTITLE2=Dope Boyz
TTITLE3=What Happened
TTITLE4=You Ain't Hard
TTITLE5=Why I'm Serious (Interlude)
TTITLE6=I'm Serious (feat. Beenie Man)
TTITLE7=Do It
TTITLE8=What's Yo Name (feat. The Neptunes)
TTITLE9=Hands Up
TTITLE10=Chooz U (feat. Jazze Pha)
TTITLE11=I Can't Be Your Man
TTITLE12=Hotel (feat. Too $hort)
TTITLE13=At The Bar
TTITLE14=Heavy Chevys (feat. The P$C)
TTITLE15=Grand Royal
TTITLE16=Outro
TTITLE17=I'm Serious (The Lil Jon Remix) (Club Mix) (Bonus Track)
EXTD=
EXTT0=
EXTT1=
EXTT2=
EXTT3=
EXTT4=
EXTT5=
EXTT6=
EXTT7=
EXTT8=
EXTT9=
EXTT10=
EXTT11=
EXTT12=
EXTT13=
EXTT14=
EXTT15=
EXTT16=
EXTT17=
PLAYORDER=
